<?xml version="1.0" standalone="no"?>
<!DOCTYPE svg PUBLIC "-//W3C//DTD SVG 20010904//EN"
 "http://www.w3.org/TR/2001/REC-SVG-20010904/DTD/svg10.dtd">
<svg version="1.0" xmlns="http://www.w3.org/2000/svg"
 width="260.000000pt" height="260.000000pt" viewBox="0 0 260.000000 260.000000"
 preserveAspectRatio="xMidYMid meet">
<metadata>
Created by potrace 1.14, written by Peter Selinger 2001-2017
</metadata>
<g transform="translate(0.000000,260.000000) scale(0.100000,-0.100000)"
fill="#000000" stroke="none">
<path d="M1180 2584 c-333 -42 -582 -164 -801 -391 -210 -218 -321 -463 -360
-794 -11 -93 -10 -123 4 -227 41 -286 127 -489 293 -691 231 -278 552 -437
944 -467 152 -12 415 44 586 125 379 180 639 516 721 929 21 107 23 346 4 452
-31 175 -111 369 -214 520 -66 97 -221 251 -318 317 -169 116 -360 190 -560
218 -171 23 -185 24 -299 9z m83 -130 c42 -7 50 -24 11 -24 -36 0 -160 -28
-222 -51 -201 -73 -396 -240 -474 -405 -16 -34 -32 -78 -35 -98 -5 -34 -4 -36
21 -36 35 0 144 70 195 125 26 28 45 61 53 92 11 43 13 45 19 23 4 -14 8 -43
8 -65 l1 -40 21 25 c50 63 60 104 45 185 -7 37 -6 39 8 20 8 -11 20 -43 27
-71 10 -42 9 -60 -6 -110 -34 -119 -149 -273 -259 -346 -33 -23 -91 -63 -127
-91 l-66 -49 -132 1 c-89 1 -137 -2 -147 -10 -11 -9 -14 -8 -14 2 1 23 26 119
49 189 80 238 284 508 459 607 31 18 60 33 65 33 4 0 -19 -26 -51 -57 -32 -32
-65 -69 -72 -83 -11 -20 -5 -17 36 16 186 154 428 244 587 218z m405 -40 c158
-45 292 -153 356 -287 59 -121 78 -212 71 -342 -5 -107 -5 -109 11 -75 28 61
38 140 27 224 -5 42 -6 79 -3 81 13 8 50 -74 75 -166 20 -74 25 -114 24 -189
-2 -77 0 -94 12 -92 18 5 27 18 40 67 39 135 -17 318 -152 498 -33 43 -59 81
-59 85 0 14 134 -127 174 -183 58 -82 113 -184 137 -253 26 -76 49 -176 49
-215 l0 -32 -200 3 c-186 3 -200 2 -201 -15 0 -14 -2 -15 -6 -3 -9 22 -25 30
-50 25 -13 -3 -35 -7 -49 -11 -26 -5 -27 -4 -21 33 3 21 15 71 27 112 30 111
27 172 -14 256 -40 85 -103 166 -154 200 -20 13 -62 31 -92 39 l-55 15 52 0
c92 1 158 -31 241 -118 72 -75 73 -75 67 -41 -15 81 -66 169 -138 237 -83 77
-165 119 -272 138 -42 7 -79 16 -82 19 -13 13 132 5 185 -10z m-125 -572 c24
-33 32 -56 35 -101 6 -80 -11 -124 -62 -166 l-43 -35 -234 -1 c-129 0 -239 -5
-245 -10 -12 -10 -104 -1 -104 11 0 13 51 30 91 30 29 0 50 8 77 29 45 36 132
71 175 71 18 0 59 -12 92 -25 33 -14 71 -25 83 -25 43 0 92 31 112 71 26 51
25 96 -4 153 -29 57 -15 56 27 -2z m130 -268 c-15 -31 -23 -37 -50 -38 l-32
-1 25 30 c32 38 63 103 66 135 1 14 3 0 5 -32 3 -40 -1 -67 -14 -94z"/>
<path d="M1163 1618 c-59 -19 -46 -68 19 -68 29 0 102 55 92 71 -7 12 -70 10
-111 -3z"/>
</g>
</svg>
